<svg t="1727596577048" viewBox="0 0 1024 1024" version="1.1" xmlns="http://www.w3.org/2000/svg" p-id="8485" width="200"
  height="200">
  <path d="M512 352a160 160 0 1 0 0 320 160 160 0 0 0 0-320z" fill="currentColor" p-id="8486"></path>
  <path
    d="M512 53.333333a32 32 0 0 1 32 32v54.698667a373.418667 373.418667 0 0 1 339.968 339.968H938.666667a32 32 0 0 1 0 64h-54.698667a373.418667 373.418667 0 0 1-339.968 339.968V938.666667a32 32 0 0 1-64 0v-54.698667a373.418667 373.418667 0 0 1-339.968-339.968H85.333333a32 32 0 0 1 0-64h54.698667a373.418667 373.418667 0 0 1 339.968-339.968V85.333333a32 32 0 0 1 32-32zM202.666667 512a309.333333 309.333333 0 1 0 618.666666 0 309.333333 309.333333 0 0 0-618.666666 0z"
    fill="currentColor" p-id="8487"></path>
</svg>