<svg width="18" height="18" viewBox="0 0 18 18" fill="none" xmlns="http://www.w3.org/2000/svg">
<path d="M8.99978 12.75C9.18743 12.75 9.34479 12.6865 9.47188 12.5596C9.59896 12.4327 9.66249 12.2754 9.66249 12.0877C9.66249 11.9001 9.59903 11.7427 9.47209 11.6156C9.34515 11.4886 9.18786 11.425 9.00023 11.425C8.81258 11.425 8.65521 11.4885 8.52812 11.6154C8.40104 11.7423 8.33751 11.8996 8.33751 12.0873C8.33751 12.2749 8.40098 12.4323 8.52791 12.5594C8.65485 12.6865 8.81214 12.75 8.99978 12.75ZM9.03969 9.83751C9.21739 9.83751 9.36562 9.77761 9.48437 9.65783C9.60312 9.53803 9.66249 9.38959 9.66249 9.21251V5.79999C9.66249 5.62291 9.60239 5.47447 9.48218 5.35468C9.36196 5.23489 9.21301 5.175 9.03531 5.175C8.85761 5.175 8.70938 5.23489 8.59063 5.35468C8.47188 5.47447 8.41251 5.62291 8.41251 5.79999V9.21251C8.41251 9.38959 8.47261 9.53803 8.59283 9.65783C8.71304 9.77761 8.86199 9.83751 9.03969 9.83751ZM9.00332 16.5C7.96804 16.5 6.99513 16.3031 6.08458 15.9094C5.17403 15.5156 4.37917 14.9792 3.69999 14.3C3.02083 13.6208 2.48438 12.8257 2.09063 11.9145C1.69688 11.0033 1.5 10.0297 1.5 8.99376C1.5 7.95776 1.69688 6.98417 2.09063 6.07301C2.48438 5.16184 3.02083 4.36875 3.69999 3.69375C4.37917 3.01875 5.17434 2.48438 6.0855 2.09063C6.99668 1.69688 7.97026 1.5 9.00624 1.5C10.0422 1.5 11.0158 1.69688 11.927 2.09063C12.8382 2.48438 13.6313 3.01875 14.3063 3.69375C14.9813 4.36875 15.5156 5.1625 15.9094 6.075C16.3031 6.9875 16.5 7.96139 16.5 8.99668C16.5 10.032 16.3031 11.0049 15.9094 11.9154C15.5156 12.826 14.9813 13.6201 14.3063 14.2977C13.6313 14.9753 12.8375 15.5118 11.925 15.9071C11.0125 16.3024 10.0386 16.5 9.00332 16.5ZM9.00624 15.25C10.7437 15.25 12.2188 14.6417 13.4313 13.425C14.6438 12.2083 15.25 10.7313 15.25 8.99376C15.25 7.25626 14.6445 5.78125 13.4336 4.56874C12.2227 3.35624 10.7448 2.74999 9 2.74999C7.26666 2.74999 5.79166 3.35546 4.575 4.56639C3.35833 5.77734 2.74999 7.25521 2.74999 9C2.74999 10.7333 3.35833 12.2083 4.575 13.425C5.79166 14.6417 7.26874 15.25 9.00624 15.25Z" fill="currentColor"/>
</svg>
